<svg xmlns="http://www.w3.org/2000/svg" version="1.1" viewBox="-5.0 -10.0 110.0 135.0">
 <path d="m67.027 87.164c0.125 0.042969 0.26562-0.023437 0.3125-0.15234l3.8438-11.031h0.91797c1.5664 3.7539 2.8672 6.6953 4.5195 10.711h-1.0664c-0.13672 0-0.24609 0.10938-0.24609 0.24609s0.10938 0.24609 0.24609 0.24609h3.6211c0.13672 0 0.24609-0.10938 0.24609-0.24609s-0.10938-0.24609-0.24609-0.24609h-2.0234c-0.25-0.69922-3.4766-8.2188-4.5156-10.711h3.0039c0.13672 0 0.24609-0.10938 0.24609-0.24609v-3.0547c0-0.13672-0.10938-0.24609-0.24609-0.24609h-5.5039v3.5469h0.53125l-3.7891 10.871c-0.042968 0.12891 0.023438 0.26953 0.14844 0.3125z"/>
 <path d="m11.234 57.562h8.75c-0.77734 2.2734 0.92188 4.625 3.3047 4.625 1.9297 0 3.4961-1.5703 3.4961-3.4961 0-1.2891-0.70312-2.4141-1.7422-3.0195v-2.9648c0-0.13672-0.10938-0.24609-0.24609-0.24609s-0.24609 0.10937-0.24609 0.24609v2.7266c-0.38672-0.15234-0.80859-0.23828-1.2461-0.23828-0.92969-1.168-1.9258-2.375-3.0195-3.3672 1.2422-0.87109 2.6562-1.7812 4.2656-2.7461v2.1836c0 0.13672 0.10938 0.24609 0.24609 0.24609s0.24609-0.10938 0.24609-0.24609v-2.8516c0-0.13672-0.10938-0.24609-0.24609-0.24609h-13.562c-0.13672 0-0.24609 0.10938-0.24609 0.24609v8.9062c0 0.13281 0.10938 0.24219 0.24609 0.24219zm6.8594-4.7188c-2.25-1.2188-4.3828-2.6289-6.3398-4.1875h12.555c-2.5156 1.5039-4.5508 2.8789-6.2148 4.1875zm-2.832-1.0938-0.003907 0.003906c-1.4297 1.582-2.6992 3.2852-3.7812 5.0625v-7.75c1.2031 0.95312 2.4688 1.8516 3.7852 2.6836zm9.7539 5.9844-2.207 2.207c-0.0625 0.0625-0.16797 0.0625-0.23047 0l-1.0508-1.0469c-0.0625-0.0625-0.0625-0.16797 0-0.23047s0.16797-0.0625 0.23047 0l0.93359 0.93359 2.0938-2.0938c0.0625-0.0625 0.16797-0.0625 0.23047 0s0.0625 0.16406 0 0.23047zm-2.2969-2.4883c-1.1016 0.18359-2.0312 0.87891-2.5312 1.8359-0.0625-0.015625 0.46484-0.003906-8.293-0.007812 1.0664-1.7539 2.3203-3.4336 3.7266-4.9922 0.019531-0.023437 0.035156-0.050781 0.046875-0.078125 0.76172 0.47266 1.5391 0.92188 2.332 1.3477 0.085938 0.046876 0.19141 0.035157 0.26953-0.023437 0.5-0.39844 1.0352-0.80078 1.6094-1.2109 1.0195 0.91016 1.9609 2.0273 2.8398 3.1289z"/>
 <path d="m82.215 33.23c0.035156 0.10547 0 0.019531 1.5938 1.7109 0.09375 0.097656 0.25 0.10156 0.34766 0.007813s0.10156-0.24609 0.007812-0.34766l-1.5234-1.6016c0.1875-0.15625 0.32031-0.35938 0.32422-0.53516 0.011718-0.41406-0.26172-0.76562-0.63672-0.86719l0.066406-2.6602c0.003907-0.13672-0.10547-0.24609-0.23828-0.25-0.12891-0.003906-0.24609 0.10547-0.25 0.23828l-0.066406 2.6836c-0.56641 0.1875-0.80859 0.95312-0.35938 1.4414 0.20312 0.22266 0.47656 0.25391 0.73438 0.17969z"/>
 <path d="m82.105 38.621c3.332 0 6.0859-2.6562 6.168-6.0234 0.082031-3.4102-2.625-6.2383-6.0195-6.3203-3.4023-0.085938-6.2383 2.6016-6.3242 6.0195-0.085938 3.4727 2.6992 6.3242 6.1758 6.3242zm4.6953-4.6875c0.003907-0.21875 0.37891-0.21094 0.375 0.007812-0.003906 0.21875-0.37891 0.21094-0.375-0.007812zm-0.72656-4.75c0.0625-0.066406 0.16406-0.070313 0.23047-0.011719 1.0469 0.94922 1.5195 2.5078 1.1719 3.875-0.023437 0.089844-0.11328 0.14062-0.19922 0.11719-0.085938-0.023437-0.14062-0.10937-0.11719-0.19922 0.32031-1.2578-0.11328-2.6836-1.0742-3.5547-0.066407-0.054687-0.074219-0.16016-0.011719-0.22656zm-3.8633-1.25c2.4883 0.0625 4.4609 2.1328 4.3984 4.6211-0.058594 2.4883-2.1211 4.4609-4.6211 4.3984-2.4883-0.0625-4.4609-2.1328-4.4023-4.6211 0.066406-2.4531 2.0938-4.457 4.625-4.3984z"/>
 <path d="m86.023 24.219c2.8828 1.5469 4.793 4.7852 4.7539 8.0586 0 0.13672 0.10547 0.24609 0.24219 0.24609h0.003907c0.13281 0 0.24219-0.10938 0.24609-0.24219 0.042969-3.4492-1.9688-6.8633-5.0117-8.4961-0.11719-0.0625-0.26562-0.019531-0.33203 0.10156-0.066406 0.12109-0.019531 0.26953 0.097657 0.33203z"/>
 <path d="m90.617 23.945c-0.10547-0.085937-0.25781-0.070312-0.34375 0.035157-0.085938 0.10547-0.070313 0.25781 0.035156 0.34375 0.94531 0.77734 1.6133 1.8633 1.875 3.0625 0.023437 0.11328 0.125 0.19141 0.23828 0.19141 0.15625 0 0.27344-0.14453 0.23828-0.29688-0.28516-1.3047-1.0117-2.4883-2.043-3.3359z"/>
 <path d="m49.539 75.984h2.3945l-3.6172 10.387c-0.042968 0.12891 0.023438 0.26562 0.15234 0.3125 0.12891 0.042968 0.26562-0.023438 0.3125-0.15234l3.6758-10.551h1.2852c1.5234 3.6523 2.8906 6.8203 4.4922 10.711h-2.3633c-0.13672 0-0.24609 0.10938-0.24609 0.24609s0.10938 0.24609 0.24609 0.24609h5.2383c0.13672 0 0.24609-0.10938 0.24609-0.24609s-0.10938-0.24609-0.24609-0.24609h-2.375c0.011719-0.16016 0.0625 0.125-4.4609-10.711h15.539v-3.5469h-1.4141c0.011718-0.007813 0.019531-0.011719 0.019531-0.015625h-12.754c0.015626 0.003906 0.027344 0.007812 0.042969 0.015625l-4.9922 0.003906c-0.40625 1.1328-0.83984 2.3477-1.1758 3.5469z"/>
 <path d="m73.043 58.281c0.17969-0.17578 0.23047-0.45312 0.14844-0.68359 0.23828-0.26562 0.33594-0.65234 0.24219-1.0039-0.085938-0.3125-0.55859-0.18359-0.47266 0.12891 0.0625 0.22656-0.03125 0.49219-0.22266 0.62891-0.12109 0.085938-0.13672 0.26172-0.035156 0.36719 0.050781 0.050781 0.046875 0.16016-0.003906 0.21094-0.23047 0.22656 0.11328 0.57812 0.34375 0.35156z"/>
 <path d="m46.406 40.367c-0.61328-0.36719-1.2734 0.003906-1.1836 0.66797 0.027344 0.21484 0.125 0.40234 0.23047 0.58984 0.44141 0.79688 0.99609 1.6719 1.4922 2.4297-0.36719 0.070312-0.74609 0.23828-0.875 0.58594-0.40234 0.14453-0.75 0.53125-0.73047 1.0078-0.28516 0.17187-0.39453 0.53125-0.32031 0.83594 0.085938 0.375 0.38672 0.67969 0.67578 1.0078 0.8125 0.9375 1.1211 1.2969 1.8477 2.0586l0.625 1.1758c-0.52734-0.039062-1.0547-0.082031-1.582-0.12891-0.15234-0.011718-0.26563 0.10547-0.26563 0.24609 0.046876 3.6562 0.085938 6.9609 0.11719 9.3945 0 0.12109 0.09375 0.22266 0.21484 0.23828 0.47656 0.058594 0.94922 0.125 1.418 0.19141-0.64453 0.21875-1.1211 0.65625-1.7422 0.98828-3.0078 1.6211-5.5352 3.5703-8.2773 5.6055-1.3867 1.0273-2.7344 2.1094-4.043 3.2344-0.82031 0.70703-3.4414 2.4922-3.0195 3.0195 0.16016 0.20312 0.31641 0.41797 0.49609 0.69531-0.078125 0.007812-0.15625 0.050781-0.19531 0.125-0.29297 0.53516-1.2305 1.6836-3.6367 0.84766-0.38281-0.13281-0.77734-0.20312-1.1133-0.26172-0.34766-0.058594-0.85156-0.070313-1.2578 0.20312-0.48047 0.32031-0.67969 0.96484-0.48828 1.5664 0.16016 0.50781 0.53516 0.89453 0.91406 1.2344 0.89453 0.79688 2.875 1.957 4.0977 2.5 1.1836 0.52734 1.7891 0.23047 2.5859-0.82422 0.41406-0.54687 0.82812-1.0938 1.2461-1.6406 0.003906-0.007813 0.007812-0.015626 0.015625-0.023438 0.23047 0.40234 0.48438 0.84766 0.76172 1.3359 2.4727-2.4414 5.1328-4.6914 7.9531-6.7266-0.007813 0.042969-0.019532 0.085937-0.027344 0.12891 1.8594-1.8867 3.9141-3.4297 5.9102-4.4297 1.4102-0.70703 2.0898-0.57812 3.1133 0.91406 0-0.007812 0.003907-0.011718 0.007813-0.019531 0.98438 0.82812 1.5039 1.9375 3.5586 2.9375h13.941c2.1133-1.6758 3.6797-4.7539 4.4258-7.3984 0.29297-0.074219 0.58203-0.15625 0.87109-0.24219 0.097656-0.03125 0.16797-0.11719 0.17188-0.21875 0.10156-1.75 0.24609-5.6133 0.16406-6.8828 0.13281-0.62891 0.22656-1.2695 0.28125-1.875 0.88672 0.26562 0.82422 0.26172 0.89062 0.26172 0.14062 0 0.25-0.11328 0.24609-0.25391-0.054687-1.7031-0.30078-3.4297-0.72656-5.1328-0.03125-0.13281-0.16406-0.21094-0.29687-0.17969-0.13281 0.03125-0.21094 0.16406-0.17969 0.29688 0.38672 1.5508 0.62109 3.125 0.69922 4.6836-2.4492-0.76172-4.9023-1.3125-7.3008-1.6328-0.12109-0.64844-0.18359-1.3008-0.32031-1.9531-0.027344-0.13281-0.15625-0.21875-0.28906-0.19141-0.13281 0.027344-0.21875 0.15625-0.19141 0.28906 0.14453 0.6875 0.20703 1.418 0.35547 2.1211 0.019531 0.10156 0.10547 0.17969 0.20703 0.19141 0.42578 0.054687 0.85547 0.12109 1.2852 0.19141 0 0.4375-0.058593 0.99609-0.019531 1.3945 0.015625 0.14844 0.03125 0.63672-0.35938 0.76953-0.28125 0.09375-0.29688 0.050782-5.4102-0.56641-0.51172-0.0625-1.0117-0.26172-1.4414-0.58203 0.03125-0.24219-0.27344-3.0625-0.32812-4.1484-0.007813-0.13672-0.12109-0.24219-0.25781-0.23438-0.13672 0.007813-0.23828 0.12109-0.23438 0.25781 0.046875 1.0117 0.23438 2.6523 0.30859 3.7734-0.28125-0.1875-0.58594-0.375-0.92578-0.58594-0.27734-0.17969-0.57031-0.30469-0.875-0.17578 0.050781-0.83594 0.085937-1.5859 0.10156-2.293 0.003906-0.12891-0.09375-0.23828-0.22266-0.25-0.90234-0.078125-1.8086-0.14453-2.7227-0.21094-0.054688-0.45703 0.003906-0.91797 0.19531-1.3359 0.52344-1.1367 1.2305-2.1797 2.1094-3.0938 0.09375-0.097656 0.089844-0.25391-0.007812-0.34766-0.097657-0.09375-0.25391-0.089844-0.34766 0.007812-0.91406 0.95312-1.6523 2.0391-2.1992 3.2266-0.19141 0.41797-0.27734 0.88672-0.25391 1.3633 0.003906 0.054687 0.003906 0.097656 0.007812 0.14062-0.78906-0.054688-1.582-0.10938-2.375-0.16406-0.53516-1.0078-1.1719-2.0273-2.0664-3.9336-0.058594-0.12109-0.20312-0.17578-0.32422-0.11719s-0.17578 0.20312-0.11719 0.32422c0.79297 1.6953 1.4648 2.832 1.9336 3.6875-1.5312-0.10156-3.0625-0.20703-4.582-0.32031-0.83594-1.5586-0.77734-1.4805-0.82422-1.5273-0.39844-0.43359-0.40234-0.38281-1.8594-2.0664-0.27734-0.32031-0.51172-0.55859-0.56641-0.80078-0.03125-0.12891 0.019531-0.29297 0.13672-0.32422 0.097656-0.027343 0.24219 0.019531 0.37109 0.11328 0.41797 0.30859 0.53125 0.38672 0.82031 0.71094l0.074219 0.082031c0.082031 0.09375 0.125 0.21094 0.097656 0.26172-0.015625 0.019531-0.074219 0.027344-0.097656 0.019531-0.070313-0.10938-0.21875-0.14453-0.33203-0.074219-0.27344 0.16406-0.046874 0.57813 0.37109 0.56641 0.32422-0.007813 0.53516-0.23047 0.55469-0.51172 0.51562 0.058594 0.96875-0.32422 0.66797-1.0156 0.24609 0.007813 0.71875-0.10156 0.87891-0.050781 0.070312 0.09375 0.074219 0.44922 0.007812 0.54688-0.09375 0.09375-0.097656 0.24609-0.003906 0.34375 0.09375 0.097656 0.25 0.10156 0.34766 0.007812 0.20703-0.19922 0.21484-0.625 0.17188-0.86328-0.10938-0.58203-0.49609-0.57422-1.0781-0.5-0.11719 0.015625-0.23828 0.03125-0.3125 0.027344-0.28906-0.011719-0.625-0.13672-0.68359-0.34375-0.035157-0.13281 0.0625-0.27734 0.17187-0.35938 0.16016-0.12109 0.38672-0.1875 0.60938-0.25 1.0234-0.29688 1.3125-0.20312 2.0586 0.57422 0.20703 0.21484 0.42969 0.60547 0.62891 0.96484 0.089843 0.47266 0.72266 0.30078 0.45312-0.19141-0.22656-0.41797-0.46875-0.84375-0.72656-1.1133-0.45703-0.47656-0.80469-0.74609-1.2188-0.83984-2.8516-3.6445-2.7422-3.5625-3.0625-3.7578zm-13.164 37.312c-1.7773 2.3398-1.9375 2.8906-3.2422 2.3125-1.1836-0.52734-3.1328-1.6719-3.9688-2.418-0.32812-0.29297-0.65234-0.62109-0.77344-1.0156-0.10547-0.33203-0.039062-0.78906 0.29688-1.0117 0.27344-0.18359 0.64062-0.17188 0.90234-0.125 0.32031 0.050781 0.6875 0.11719 1.0312 0.23828 1.9141 0.66797 3.4922 0.26562 4.2227-1.0664 0.375 0.61719 0.88281 1.5117 1.7266 2.9922-0.074219-0.003907-0.14844 0.03125-0.19531 0.09375zm25.809-15.375c0.007813-0.32031 0.027344-0.82031 0.074219-1.6133 1.0234 0.17188 2.043 0.33984 3.1016 0.51562zm-11.133 1.5117c-3.7266 3.1172-4.543 3.9141-5.875 4.4258-0.55078 0.21094-1.1016 0.32422-1.543 0.63281-1.0273 0.72266-1.2148 2.3477-2.3398 3.1289-0.60938 0.42188-1.5156 0.47266-2.0156-0.085937-0.058593-0.066407-0.054687-0.17188 0.011719-0.23047s0.16797-0.054688 0.23047 0.011719c0.39062 0.43359 1.1289 0.35547 1.5938 0.035156 0.52344-0.36328 0.83984-0.96875 1.1211-1.5039 0.99609-1.9062 1.457-1.7695 2.832-2.293 1.2578-0.48047 2.0117-1.2148 5.7852-4.3711 0.070312-0.058594 0.17188-0.046875 0.23047 0.019532 0.046875 0.066406 0.035156 0.17187-0.03125 0.23047zm4.2109-1.3086c-0.035156 0-0.070312-0.011718-0.097656-0.035156-0.33984-0.26562-0.78125-0.40234-1.2109-0.375-0.089843 0.007813-0.16797-0.0625-0.17187-0.15234-0.003907-0.089843 0.0625-0.16797 0.15234-0.17187 0.50781-0.03125 1.0273 0.13281 1.4336 0.44531 0.11719 0.089844 0.050781 0.28906-0.10547 0.28906zm14.266 5.5898c-2.8242 0.60547-5.8438 0.34375-8.5312-0.74609-0.082031-0.035156-0.12109-0.12891-0.089843-0.21094 0.035156-0.082031 0.12891-0.125 0.21484-0.089844 2.6172 1.0625 5.5781 1.3203 8.3398 0.73047 0.089844-0.019531 0.17578 0.039062 0.19531 0.125 0.015624 0.085938-0.042969 0.17188-0.12891 0.19141zm3.4961-1.3359-0.41797 0.73828c-0.03125 0.054688-0.085937 0.082031-0.14062 0.082031-0.125 0-0.20312-0.13672-0.14062-0.24219l0.41797-0.74219c0.042969-0.078125 0.14453-0.10547 0.22266-0.0625 0.074219 0.046875 0.10156 0.14844 0.058594 0.22656zm1.2617 0.70312-0.31641 0.84375c-0.03125 0.078125-0.11719 0.125-0.21094 0.09375-0.082031-0.03125-0.12891-0.125-0.09375-0.21094l0.31641-0.84375c0.03125-0.085937 0.125-0.12891 0.20703-0.09375 0.085937 0.035156 0.12891 0.12891 0.097656 0.21094zm-10.641-12.617c0.39062 0.24219 0.75781 0.47266 1.1016 0.73047 0.5 0.375 1.0859 0.60938 1.6875 0.68359 1.5781 0.19141 3.1523 0.38281 4.7305 0.57422 0.4375 0.050781 0.87109 0.085937 1.2227-0.21484l0.92188 1.1562c0.085938 0.10547 0.23828 0.12109 0.34375 0.039062 0.10547-0.085937 0.12109-0.23828 0.039063-0.34375-1.0391-1.3008-0.97656-1.2344-1.0195-1.2695 0.082032-0.21484 0.10156-0.45703 0.078126-0.67578-0.035157-0.33203 0.015624-0.83203 0.019531-1.2656 1.5391 0.26953 3.0977 0.62891 4.6523 1.0781-0.10937 1.3047-0.42969 2.8086-0.86328 3.9805-0.30469 0.82031-0.59375 1.0508-1.8477 0.89844-2.2305-0.26953-4.4883-0.69141-6.043-1.1289-0.12891-0.035156-0.26562 0.039062-0.30078 0.16797-0.035156 0.12891 0.039063 0.26563 0.16797 0.30078 1.5781 0.44531 3.8633 0.87109 6.1172 1.1445 1.2617 0.15234 1.9141-0.003906 2.3633-1.2148 0.046876-0.12109 0.089844-0.25391 0.13281-0.38281-0.019531 1.582-0.10547 3.6875-0.17578 4.9297-5.0664 1.4883-10.223 0.97656-14.25-1.4023l3.6953-1.2773c0.23828-0.082031 0.21094-0.42969-0.039062-0.47266-1.3633-0.22656-2.75-0.45312-4.0977-0.67969 0.015624-0.25 0.035156-0.52344 0.058593-0.82422 0.53125 0.0625 1.0898 0.078125 1.7109 0.10156 1.4453 0.058593 1.9609-0.42578 3.2617-0.03125 0.12891 0.039062 0.26562-0.035157 0.30469-0.16406s-0.035156-0.26562-0.16406-0.30469c-0.875-0.26562-1.4414-0.17969-2.043-0.089844-1.1445 0.17578-1.3281 0.078125-1.6758 0.085937-1.2461-0.046874-2.3242-0.085937-3.4531-0.84766-0.058594-0.039062-0.15625-0.23438-0.17969-0.36719 0.98828 0.42578 1.5156 0.55469 2.5898 0.73047 0.13672 0.023437 0.25781-0.070313 0.28125-0.20313 0.023437-0.13281-0.070313-0.25781-0.20312-0.28125-1.0508-0.17187-1.5312-0.28906-2.4844-0.70312-0.089844-0.039063-0.22266-0.22656-0.26562-0.28516-0.011719-0.019531-0.023438-0.078125-0.007813-0.12109 0.003906-0.007813 0.007813-0.019532 0.027344-0.027344 0.57422 0.25 1.7773 0.65234 3.0508 0.9375 0.13281 0.03125 0.26172-0.054688 0.29297-0.1875 0.027344-0.13281-0.054688-0.26172-0.1875-0.29297-1.0078-0.22266-1.9297-0.5-2.8281-0.85156-0.14844-0.058593-0.27734-0.11328-0.36719-0.19531-0.066407-0.058594-0.10156-0.13672-0.089844-0.18359 0.019531-0.0625 0.050781-0.125 0.078125-0.16406 0.85547 0.32422 1.8438 0.61719 2.9102 0.83594 0.13281 0.027344 0.26172-0.058593 0.28906-0.19141 0.027343-0.13281-0.058594-0.26172-0.19141-0.28906-1.6602-0.33984-2.7578-0.78906-2.8555-0.82031-0.007812-0.003906-0.011718-0.007812-0.019531-0.011719-0.007812-0.042969-0.023437-0.085937-0.058593-0.12109-0.039063-0.042969-0.046876-0.085938-0.050782-0.089844 0.51562-0.375 2.2109 0.39453 2.3438 0.42188 0.44922 0.082031 0.92969 0.17188 1.3984 0.28906 0.23828 0.058594 0.40625-0.23438 0.23047-0.41016-0.92187-0.92969-0.96484-0.96484-1.0117-1.0273 0.16797-0.015625 0.42188 0.17188 0.67188 0.32812zm-0.58203 0.45703c-0.13281-0.027344-0.26172-0.050782-0.39063-0.074219 0.007813-0.097657 0.015626-0.19922 0.023438-0.29688 0.019531 0.019531 0.24609 0.24609 0.36719 0.37109zm-0.87109-0.21875c-0.49219-0.19531-1.1328-0.37891-1.6797-0.42578-0.26562-0.023437-0.58203 0.058594-0.77734 0.19922-0.23047 0.17578-0.24219 0.49219-0.082031 0.73047-0.26562 0.30078-0.32031 0.69141-0.019531 1.0117-0.16406 0.22266-0.12891 0.53125-0.003906 0.70313 0.023437 0.035156 0.050781 0.066406 0.074218 0.10156-0.22656 0.33594 0.050782 0.94922 0.3125 1.1289 0.62891 0.42578 1.2227 0.64453 1.8477 0.76562-0.089844 1.2148-0.14453 2.207-0.17188 3.1289-3.4961-1.0586-7.3984-1.8633-11.633-2.4023-0.042969-3.6055-0.078125-6.4102-0.10938-8.9141 4.1055 0.33984 8.3086 0.55469 12.41 0.89844-0.027343 0.91406-0.082031 1.9023-0.16797 3.0742zm-11.301-8.4141c-0.14453 0.15625-0.47266 0.011719-0.58594-0.14453-0.011719-0.015625-0.027344-0.03125-0.042969-0.042969-0.25781-0.28125-0.40625-0.39844-0.75391-0.65625-0.023438-0.011719-0.24609-0.21484-0.54688-0.26562 0.007813-0.066406 0.03125-0.14453 0.066406-0.19922 0.050781-0.089843 0.30469-0.27344 0.35938-0.27344 0.019532 0.015625 1.2148 0.98047 1.2383 1 0.18359 0.17188 0.3125 0.50781 0.26562 0.58203zm-0.40234-2.0469c-0.16406 0.125-0.27734 0.28906-0.33203 0.46094-0.17188-0.13672-0.33594-0.26953-0.44141-0.35547 0.14453-0.14844 0.58984-0.25 0.73828-0.20312 0.21875 0.074218 0.41016-0.17188 0.28125-0.36719-0.24219-0.36719-1.8438-2.7891-1.8945-3.1914-0.039062-0.28906 0.22656-0.32031 0.44922-0.1875 0.20312 0.125 0.11328 0.039062 2.6641 3.3555-0.375 0.050781-1.1406 0.24219-1.4648 0.48828z"/>
 <path d="m60.715 36.586c0.19531 1.3125 0.5625 2.5977 0.91797 3.8398 0.11719 0.40234 0.26172 0.90625 0.63672 1.2539 0.33594 0.3125 0.78906 0.42578 1.2383 0.39453-0.027343 0.078125-0.007812 0.019531-0.023437 1.332-0.011719 0.003906-0.027344 0.007812-0.039063 0.011719-1.6211 0.65625-3.0391 1.5625-4.168 2.6055-0.097656 0.09375-0.10547 0.24609-0.011719 0.34766 0.089844 0.097656 0.24609 0.10547 0.34766 0.011718 1.125-1.043 2.4727-1.8711 3.9141-2.4688 0.11719 0.69141 0.33984 1.4336 0.42188 2.0742 0.023437 0.19531 0.25781 0.28125 0.40234 0.15234 1.0977-0.96484 2.5156-1.9727 3.6445-2.9453 1.293 0.91797 3.3867 1.0938 4.4883 2.0273 0.50391 0.42578 0.77344 1.0078 1.0039 1.5625 0.32812 0.79297 0.61719 1.5898 0.85938 2.375 0.039063 0.12891 0.17578 0.20312 0.30469 0.16406 0.12891-0.039063 0.20312-0.17578 0.16406-0.30469-0.24609-0.79688-0.53906-1.6133-0.875-2.418-0.25391-0.61328-0.55078-1.25-1.1406-1.75-1.2422-1.0547-3.4727-1.2031-4.6602-2.1602-0.09375-0.074218-0.22656-0.070312-0.31641 0.007813-1.0273 0.89844-2.375 1.875-3.4609 2.7891-0.11719-0.62109-0.30859-1.2852-0.39062-1.8828-0.007812-1.4805 0.054688-1.4844-0.039062-1.6055 0.84375-0.23047 1.4102-0.92578 1.9414-1.5977 0.082031-0.10547 0.066406-0.26172-0.039062-0.34375-0.10547-0.082032-0.26172-0.066406-0.34375 0.042968-0.36719 0.46875-0.78516 1-1.3281 1.2891-0.45312 0.24219-1.1328 0.32422-1.5547-0.070313-0.27344-0.25391-0.39453-0.66797-0.49609-1.0273-0.36719-1.2695-0.74219-2.582-0.92578-3.9062 0.13672-0.078125 0.26172-0.17578 0.37891-0.28906 0.21094 0.16797 0.49609 0.30469 0.57422 0.32031l0.019531 0.003906c0.53516 0.11328 0.55859 0.078125 0.86328 0.066406 0.64844-0.027343 1.293-0.035156 1.9453-0.13281 0.20703 0.85547 0.93359 1.7266 1.5938 2.2891 0.03125 0.027344 0.070312 0.042969 0.10938 0.050781 0.25391 0.12891 0.47656-0.19531 0.28125-0.38672-0.0625-0.0625-0.082031-0.12891-0.082031-0.1875 0.015625-0.03125 0.039062-0.070313 0.074218-0.11719 0.066407-0.089844 0.375-0.20312 0.57813-0.23438 0.61328 0.12109 0.91797 0.6875 0.63281 1.2266-0.13672 0.25781-0.23047 0.46094-0.47656 0.57422-0.097657 0.046876-0.15625 0.14844-0.14063 0.25391 0.11328 0.82422 0.29297 1.2891 0.35156 1.8047 0.015625 0.13672 0.13672 0.23047 0.26953 0.21484 0.13281-0.015625 0.23047-0.13672 0.21484-0.26953-0.0625-0.52344-0.21484-0.94141-0.32812-1.6523 0.26953-0.17969 0.39062-0.42188 0.53906-0.69922 0.32422-0.60938 0.17578-1.3789-0.51953-1.7656 0.070313-0.38672 0.13281-0.78906 0.10938-1.1992-0.082031-1.3789-1.0977-2.1328-2.4531-2.3984-0.72656-0.14062-1.6914 0.29688-2.1367-0.10156-0.71875-0.65234-1.4414-1.1523-2.3984-1.3008-2.6016-0.40234-4.0625 2.1016-2.6172 3.5742 0.55859 0.57422 1.4062 0.76953 2.1445 0.55469z"/>
 <path d="m63.871 40.215c0.046875-0.125-0.015625-0.26953-0.14062-0.31641-0.125-0.046876-0.26953 0.015624-0.31641 0.14062-0.050781 0.13672-0.23437 0.21875-0.37109 0.16797-0.12891-0.046875-0.26562 0.019531-0.3125 0.14844-0.16797 0.46094 0.88281 0.54297 1.1406-0.14062z"/>
 <path d="m62.934 39.684 0.41406-0.28906c0.10938-0.078125 0.13672-0.23047 0.0625-0.33984-0.078125-0.10938-0.23047-0.13672-0.33984-0.0625l-0.097656 0.070312c-0.066406-0.375-0.11719-0.66016-0.29688-1.1172-0.050781-0.125-0.19141-0.1875-0.31641-0.13672-0.125 0.050781-0.1875 0.19141-0.13672 0.31641 0.21484 0.53906 0.22656 0.80859 0.33984 1.4023 0.023438 0.17578 0.22656 0.25781 0.37109 0.15625z"/>
 <path d="m37.969 88.285c-1.2188 0.56641-1.1953 1.6914-0.28125 2.3203 0.69922 0.48438 1.6523 0.49609 2.3477 0.50781 2.6992 0.023438 4.1602 0.25 5.1367-0.65234 0.097656-0.09375 0.10547-0.24609 0.011719-0.34766-0.09375-0.097656-0.24609-0.10547-0.34766-0.011719-0.80469 0.74609-2.082 0.54297-4.7969 0.52344-0.82031-0.011719-1.543-0.050781-2.0781-0.42188-0.65625-0.45312-0.60547-1.0938 0.20703-1.4727 0.69141-0.31641 3.3984-0.65625 3.6953-3.2109 1.2383 0.12109 2.5156 0.18359 3.7344 0.14453-0.050781 0.95313-0.11328 1.4297-0.085937 2.3242 0.015625 0.54297-0.050781 1.0117-0.19922 1.3945-0.050781 0.125 0.015625 0.26953 0.14062 0.31641s0.26562-0.011719 0.31641-0.14062c0.17188-0.44141 0.25-0.97266 0.23047-1.5859-0.027344-0.87891 0.039062-1.375 0.089844-2.332 0.17188-0.011719 0.34766-0.019531 0.51562-0.035156 0.10938-0.011719 0.19922-0.09375 0.21875-0.20312 0.36328-2.1055 1.1328-4.9453 2.0117-7.9219 0.10937-0.55469 0.25391-1.1289 0.41406-1.6836 0.36328-1.2695 0.78906-2.4414 1.1172-3.3594v-0.007812c0.33594-1.082 0.61719-2.0117 0.86328-2.8438-1.0391-1.5859-1.5391-1.6875-2.8477-1.0312-2.0977 1.0508-4.2617 2.7148-6.1953 4.7461-0.17969 0.81641-0.37109 1.6914-0.5625 2.5859-0.76562 2.9648-1.7109 8.7383-1.7695 9.1328-0.019531 0.13281 0.066406 0.25781 0.20703 0.28125 0.42578 0.058594 0.86719 0.11328 1.3164 0.16406-0.25781 2.2188-2.6562 2.4766-3.4102 2.8203zm9.3047-12.879c0.058593-0.070312 0.16016-0.078125 0.23047-0.019531 0.074219 0.0625 0.21484 0.003906 0.26562-0.082031 0.066407-0.10156 0.066407-0.26563 0.003907-0.42969-0.13281-0.34375-0.49219-0.66797-0.31641-0.97266 0.10547-0.18359 0.32031-0.19141 0.39453-0.25781 0.14063-0.13281-0.29297-0.69922 0.050782-1.0078 0.14844-0.13281 0.34375-0.11719 0.44141-0.16016 0.11328-0.050781 0.16797-0.20312 0.16016-0.32812-0.011718-0.16406-0.089844-0.32813-0.17188-0.48828-0.039062-0.082031-0.007812-0.17969 0.074219-0.21875 0.082031-0.039062 0.17969-0.007812 0.21875 0.074219 0.089844 0.17969 0.19141 0.38281 0.20312 0.61719 0.011719 0.23828-0.089844 0.53125-0.35547 0.64453-0.3125 0.125-0.46094-0.042969-0.32812 0.44141 0.11328 0.39844 0.10547 0.64453-0.28516 0.78906-0.046875 0.019532-0.10156 0.039063-0.11328 0.058594-0.039063 0.082032 0.23047 0.41797 0.33594 0.69531 0.29297 0.77734-0.41797 1.1836-0.78516 0.875-0.070313-0.058594-0.078125-0.16016-0.023437-0.23047zm-3.5273 6.2031 1.1602-5.0625c0.019531-0.089844 0.10938-0.14453 0.19531-0.125 0.089844 0.019531 0.14453 0.10938 0.12109 0.19531l-1.1602 5.0625c-0.019531 0.089843-0.10938 0.14453-0.19531 0.12109-0.085938-0.015625-0.14063-0.10547-0.12109-0.19141zm-2.0039-3.0469c-0.023438-0.03125-0.050782-0.050781-0.082032-0.054688-0.089844-0.011718-0.15234-0.09375-0.14062-0.18359 0.027344-0.21484 0.32422-0.17188 0.48438 0.039062 0.43359 0.57812-0.39062 1.1055-0.24609 1.4961 0.039063 0.11719 0.22656 0.34375 0.089844 0.56641-0.11719 0.18359-0.39062 0.007813-0.27734-0.17578 0.03125-0.10156-0.35937-0.34766-0.003906-0.98438 0.13281-0.23047 0.32812-0.5 0.17578-0.70312z"/>
 <path d="m52.367 56.984c0.72656 0.050781 1.3477-0.32422 1.3789-0.83203 0.035156-0.50781-0.52734-0.96094-1.2539-1.0117-0.72656-0.050781-1.3477 0.32422-1.3789 0.83203-0.039062 0.50781 0.52344 0.96094 1.2539 1.0117z"/>
 <path d="m72.41 48.074c-0.074218-0.34766-0.14844-0.70703-0.30469-1.0469-0.25781-0.55469-0.73047-1.0117-1.293-1.2539-0.125-0.054688-0.26953 0.003906-0.32031 0.12891-0.054688 0.125 0.003906 0.26953 0.12891 0.32031 1.7695 0.75781 0.90625 2.707 2.1445 3.6953 0.046875 0.035156 0.097656 0.054687 0.15234 0.054687 0.23047 0 0.33203-0.29297 0.15234-0.4375-0.26953-0.21094-0.55469-0.94922-0.66016-1.4609z"/>
 <path d="m64.305 50.66c-0.10938-0.082031-0.26172-0.058594-0.34375 0.050782-0.082032 0.10937-0.058594 0.26172 0.050781 0.34375 0.26172 0.19531 0.20703 0.60937-0.097657 0.73047-0.097656 0.039063-0.16016 0.13672-0.15625 0.23828l0.035157 0.69141c0.007812 0.13672 0.125 0.23828 0.25781 0.23047 0.13672-0.007812 0.23828-0.12109 0.23047-0.25781l-0.027344-0.53516c0.54688-0.35938 0.53906-1.125 0.050782-1.4922z"/>
 <path d="m68.332 63.93c0.26562-0.16406 0.48047-0.39844 0.61719-0.67969 0.058593-0.12109 0.007812-0.26953-0.11328-0.32812-0.12109-0.058594-0.26953-0.011719-0.32813 0.11328-0.097656 0.19531-0.25 0.36719-0.4375 0.48047-0.11328 0.070313-0.15234 0.22266-0.078124 0.33594 0.074218 0.11328 0.22656 0.14844 0.33984 0.078126z"/>
 <path d="m70.027 64.195 0.74609-0.88672c0.085937-0.10156 0.074218-0.25781-0.03125-0.34375-0.10547-0.085938-0.25781-0.074219-0.34375 0.03125l-0.74609 0.88672c-0.085938 0.10156-0.074219 0.25781 0.03125 0.34375 0.10156 0.085938 0.25781 0.070313 0.34375-0.03125z"/>
 <path d="m27.59 76.234-1.1602-0.15625c-0.13281-0.019531-0.25781 0.074219-0.27734 0.21094-0.019532 0.13281 0.074218 0.25781 0.21094 0.27734l1.1602 0.15625c0.13672 0.019532 0.25781-0.078125 0.27734-0.21094 0.019531-0.13672-0.074219-0.25781-0.21094-0.27734z"/>
 <path d="m43.707 87.977c0.011719 0.41406-0.10156 0.83203-0.32422 1.1836-0.070312 0.11328-0.039062 0.26562 0.078126 0.33594 0.11328 0.070312 0.26562 0.039062 0.33594-0.078125 0.27344-0.42969 0.41406-0.94922 0.39844-1.4609-0.003906-0.13281-0.11328-0.23828-0.24609-0.23828-0.13672 0.007812-0.24609 0.12109-0.24219 0.25781z"/>
 <path d="m21.613 13.883 26.68 2.7891c0.88281 0.09375 1.5508 0.83203 1.5547 1.7188l0.011719 2.9336c-0.25-0.22266-20.055-1.9766-29.668-3.0508-0.13281-0.015626-0.25391 0.082031-0.26953 0.21484-0.015625 0.13281 0.082031 0.25391 0.21484 0.26953 9.2266 1.0312 20.301 1.957 29.531 2.9922 0.074219 0.007812 0.14062-0.015625 0.19141-0.0625l0.011719 3.7734c0 0.13672 0.10938 0.24219 0.24609 0.24219 0.13672 0 0.24609-0.10938 0.24219-0.24609l-0.023437-7.0703c-0.003907-1.1367-0.85938-2.082-1.9922-2.2031l-26.68-2.7852c-0.13672-0.015626-0.25391 0.082031-0.26953 0.21875-0.011719 0.13281 0.085938 0.25391 0.21875 0.26562z"/>
 <path d="m19.848 13.238c-0.97656-0.48828-2.3867 0.64844-2.7734 1.4766-0.39453 0.84766-0.39844 1.8164-0.39844 2.75 0.003907 6.9258 0.007813 13.855 0.011719 20.781 0 1.1367 0.007812 2.3086 0.45703 3.3516 0.30469 0.71094 0.875 1.3477 1.5625 1.6602 0.4375 0.33984 1.0039 0.51953 1.6016 0.45313l12.891-1.4375c0.13281-0.015626 0.23047-0.13672 0.21484-0.26953-0.015624-0.13281-0.13672-0.23047-0.26953-0.21484l-12.891 1.4375c-1.0195 0.11328-1.9219-0.68359-1.9258-1.7148l-0.089844-26.051c-0.003906-1.0312 0.89062-1.8359 1.9141-1.7305l0.13672 0.015625c0.13281 0.015625 0.25391-0.082032 0.26953-0.21875 0.015625-0.13281-0.082032-0.25391-0.21875-0.26953-0.054688-0.003906-0.21484-0.035156-0.49219-0.019531z"/>
 <path d="m50.133 26.875c-0.13672 0-0.24609 0.10938-0.24219 0.24609l0.027344 11.246c0.003906 0.88672-0.66016 1.6289-1.543 1.7266-0.13281 0.015625-0.23047 0.13672-0.21484 0.26953 0.015625 0.13281 0.13281 0.23047 0.26953 0.21484 1.1328-0.125 1.9805-1.0781 1.9766-2.2148l-0.027344-11.242c0-0.23828-0.26562-0.25391-0.24609-0.24609z"/>
 <path d="m44.145 40.574-9.5039 1.0508c-0.13281 0.015625-0.23047 0.13672-0.21484 0.26953 0.015625 0.13672 0.13672 0.23047 0.26953 0.21484l9.5039-1.0508c0.13281-0.015625 0.23047-0.13672 0.21484-0.26953-0.015624-0.13281-0.13281-0.23047-0.26953-0.21484z"/>
 <path d="m47.414 19.262c0.34766-0.41406 0.15625-1.1211-0.35547-1.3008-0.074219-0.027344-0.14844-0.015626-0.21094 0.023437-0.054687-0.046875-0.12891-0.070313-0.20312-0.058594-0.25 0.042969-0.46875 0.21875-0.58984 0.46875-0.25 0.53516 0.070312 1.0898 0.65625 1.1445 0.28516 0.019532 0.55859-0.10156 0.70312-0.27734z"/>
 <path d="m44.359 18.934c0.34766-0.41406 0.15625-1.1211-0.35547-1.3008-0.074218-0.027343-0.14844-0.015624-0.21094 0.023438-0.054688-0.046875-0.12891-0.070312-0.20312-0.058594-0.53516 0.089844-0.84375 0.75391-0.57422 1.2227 0.26953 0.46484 0.99609 0.52734 1.3438 0.11328z"/>
 <path d="m41.438 18.469c0.34766-0.41797 0.15234-1.1211-0.35547-1.3008-0.074219-0.027344-0.14844-0.015625-0.21094 0.023437-0.054688-0.046875-0.12891-0.070312-0.20312-0.058594-0.25 0.042969-0.46875 0.21875-0.58984 0.46875-0.25 0.53516 0.070313 1.0898 0.65625 1.1406 0.28516 0.023437 0.55469-0.097657 0.70312-0.27344z"/>
 <path d="m12.473 17.895c0.125 0 0.23438-0.097656 0.24219-0.22656 0.29688-3.9727 3.3164-7.5508 7.1836-8.5078 0.13281-0.03125 0.21094-0.16406 0.17969-0.29688-0.03125-0.13281-0.16406-0.21094-0.29688-0.17969-4.0664 1.0039-7.2422 4.7695-7.5547 8.9453-0.007812 0.14062 0.10547 0.26562 0.24609 0.26562z"/>
 <path d="m8.668 90.812c0 0.13672 0.10938 0.24609 0.24609 0.24609h12.836c0.13672 0 0.24609-0.10938 0.24609-0.24609s-0.10938-0.24609-0.24609-0.24609h-2.7734c0.6875-0.33203 1.1875-0.9375 1.1875-2.0234-0.007812-0.050781 0.11719-1.4531-1.0547-2.5938-0.125-0.12109-0.14453-0.046875-1.7383-0.070313 0-0.089844 0-0.18359-0.007813-0.27344 0.25391-0.17578 0.54688-0.32031 0.85156-0.46875 0.085937 0.0625 0.1875 0.082031 0.28906 0.058593 1.0781 0.10547 2.2461 0.13672 3.1211-0.60156 0.48047-0.40625 0.75-1.0117 0.70703-1.5742-0.074219-0.92969-1.0977-1.9492-2.5547-0.90234-0.67578 0.48437-1.2109 1.1797-1.5039 1.957-0.058594 0.15234-0.26563 0.28125-0.25 0.61328-0.24609 0.11719-0.49609 0.24219-0.73047 0.38672-0.09375-0.43359-0.26953-0.84766-0.52344-1.2227 0.46094-0.76562 1.0547-1.3438 1.75-2.1016 0.3125-0.36328 0.91406-0.49219 1.3945-0.70312 0.875-0.38672 2.1133-0.59375 2.4805-2.5703 0.21484-1.1641-0.03125-2.4375-0.67969-3.4961-0.39062-0.64062-1.2031-0.84766-1.8516-0.46875-0.3125 0.18359-0.47266 0.36719-1.5156 1.3984-0.25391 0.25391-0.62891 0.52344-0.83984 0.87109-0.83594 1.375-0.48047 3.0781 0.75 3.9805 0.10938 0.078125 0.26172 0.054687 0.34375-0.050781 0.078126-0.10938 0.054688-0.26172-0.050781-0.34375-1.0273-0.75391-1.3281-2.1719-0.62109-3.332 0.11328-0.18359 0.3125-0.36328 0.50781-0.53906 0.66406-0.59375 1.2852-1.3359 1.6758-1.5625 0.41406-0.24219 0.9375-0.10938 1.1875 0.30469 1.1289 1.8477 0.71875 3.957-0.19141 4.6914-0.38281 0.30859-0.89453 0.45312-1.3867 0.67187-0.10938 0.046876-0.23438 0.09375-0.35938 0.14063 0.83594-1.1602 1.293-2.6992 0.60547-3.9336-0.066406-0.11719-0.21484-0.16016-0.33203-0.09375-0.11719 0.066406-0.16016 0.21484-0.09375 0.33203 0.5625 1.0039 0.16797 2.2812-0.38672 3.1406-0.75781 1.1719-1.9258 2.0625-2.6953 3.2578-0.42578-0.47266-0.89063-0.79297-1.3438-1.2031 0.023437-0.019532 0.042968-0.042969 0.058593-0.066407 0.58594-1.0547 0.4375-2.4844-0.35547-3.3906-0.39062-0.44922-0.90234-0.76562-1.3672-1.0938-0.56641-0.40625-1.3438-0.10938-1.5312 0.53906-0.16016 0.55469-0.33594 1.0391-0.33594 1.625-0.023438 1.7109 1.1953 3.1328 2.8242 3.4219 0.13281 0.023437 0.26172-0.066406 0.28516-0.19922 0.023438-0.13281-0.066406-0.26172-0.19922-0.28516-1.4023-0.24609-2.4375-1.4727-2.418-2.9336 0.003906-0.51953 0.16797-0.96875 0.31641-1.4922 0.097657-0.33594 0.49609-0.47656 0.77734-0.27734 0.44922 0.32031 0.9375 0.62109 1.2852 1.0195 0.65234 0.74609 0.78125 1.9141 0.32031 2.7891-0.28125-0.3125-0.50781-0.66016-0.58594-1.0664-0.023437-0.13281-0.15234-0.21875-0.28516-0.19531-0.13281 0.023437-0.21875 0.15234-0.19531 0.28516 0.26953 1.4141 1.7109 2.0156 2.4961 2.9727-0.33203 0.625-0.53906 1.3086-0.50781 1.9961h-1.2422c-0.0625 0-0.125 0.023437-0.17188 0.070313-0.67969 0.66016-1.0547 1.5469-1.0547 2.4922 0.023437 0.078125-0.16797 1.4688 1.1875 2.125l-5.5039-0.011719c-0.13672 0-0.24609 0.10938-0.24609 0.24609zm11.891-6.4609c0.019531-0.039062 0.015625-0.13281 0.074218-0.22656 0.125-0.19531 0.36328-0.17188 0.49219-0.20312 0.11328-0.027344 0.20703-0.14453 0.20312-0.26172 0-0.089844 0.070313-0.16406 0.16016-0.16406h0.003907c0.007812 0 0.011718 0.003906 0.015624 0.003906 0.007813-0.21484 0.34375-0.20703 0.34375 0.003906 0 0.089844-0.074218 0.16406-0.16406 0.16406h-0.019531c-0.003907 0-0.011719-0.003907-0.015625-0.003907 0 0.26953-0.19531 0.51563-0.45703 0.57813-0.042968 0.011718-0.089843 0.015624-0.14062 0.023437-0.23828 0.027344-0.10938 0.03125-0.20703 0.23047-0.074218 0.15625-0.23828 0.23438-0.48438 0.23438-0.085937 0-0.023437 0-1.1797-0.089844-0.089844-0.007813-0.15625-0.085937-0.14844-0.17578 0.007813-0.089844 0.085938-0.15625 0.17578-0.14844l1.0781 0.085938c0.22266 0.011718 0.26172-0.035156 0.26953-0.050782zm-2.2227 2.9727 0.023437-0.023438c0.0625-0.0625 0.16797-0.0625 0.23047 0 0.15234 0.15234-0.097656 0.40625-0.25391 0.25391-0.0625-0.0625-0.0625-0.16406 0-0.23047zm-0.65625 2.2578c0.36328-0.42188 0.57812-0.96484 0.60547-1.5195 0.003906-0.089844 0.078125-0.15625 0.17188-0.15625 0.089844 0.003906 0.16016 0.082031 0.15625 0.17188-0.03125 0.62891-0.27344 1.2422-0.68359 1.7188-0.03125 0.039063-0.078126 0.058594-0.125 0.058594-0.13672-0.003907-0.21484-0.16406-0.125-0.27344zm-1.1758-5.2344c0.17969 0.32031 0.29688 0.66797 0.34766 1.0312-0.17578 0.14453-0.33594 0.30469-0.47266 0.49609h-0.21094c-0.027344-0.51562 0.10938-1.0352 0.33594-1.5273z"/>
 <path d="m19.973 27.207c-0.10938 0.27344-0.17188 0.57422-0.19531 0.88672-0.19531 0.066406-0.4375 0.38672-0.44531 0.80859-0.003906 0.26562 0.078125 0.51172 0.14844 0.73047 0.046875 0.14453 0.10938 0.32813 0.24219 0.47656 0.16016 0.17578 0.41016 0.25391 0.62891 0.17969 0.03125 0.046876 0.066407 0.09375 0.097657 0.13672 0.19531 0.25 0.49219 0.375 0.78516 0.33594 0.17969-0.023438 0.35547-0.042969 0.53516-0.0625 0.49609 1.7383 1.2617 3.293 2.1367 5 0.17969 0.35156 0.56641 0.46484 0.85938 0.27344 0.21094-0.14062 0.64062-0.30469 0.88672-0.46484 0.32812-0.21875 0.40625-0.73047 0.16016-1.0586 0.14062-0.3125 0.074219-0.73828 0.03125-0.9375-0.0625-0.27734-0.24609-0.52344-0.49219-0.66406 0.039063-0.25391-0.039062-0.54688-0.11719-0.77344-0.082031-0.24609-0.26562-0.45312-0.49609-0.57031 0.007813-0.30859-0.12109-0.64844-0.27734-0.92188 2.0508 0.050781 4.0586 0.42188 6.2148 1.1328 0.035157 0.18359 0.11328 0.37109 0.30078 0.45312 0.10938 0.046875 0.28516 0.023437 0.34375 0 0.52734-0.23438 0.52344-1.2773 0.5-1.8477-0.035156-0.82031-0.035156-1.4492-0.070312-2.082 1.0195-0.97656 0.72266-2.5938-0.44531-3.1992-0.015626-0.007812-0.03125-0.015624-0.050782-0.019531-0.17969-0.76953-0.42578-1.6953-0.76562-2.8633-0.066406-0.22266-0.14062-0.45703-0.28906-0.64062-0.39844-0.5-1.1094-0.35547-1.0625 0.34375-2.9688 1.9375-5.3594 3.6875-8.6133 4.793-0.24219 0.085937-0.44531 0.28906-0.55078 0.55469zm-0.14062 1.8281c0.042969 0.21484 0.10156 0.42578 0.18359 0.62891-0.046875-0.10547-0.15625-0.44141-0.18359-0.62891zm4.9414 3.1992c0.16016 0.47266 0.085937 0.58594 0.078124 0.59766-0.11328 0.14062-0.039062 0.34766 0.13281 0.39062 0.1875 0.042969 0.34375 0.20703 0.38672 0.39453 0.078125 0.34766 0.042968 0.62109-0.03125 0.67969-0.14453 0.11328-0.11328 0.34375 0.054687 0.41797 0.097657 0.042968 0.11719 0.30469-0.003906 0.38672-0.10156 0.066407-0.26172 0.14453-0.41016 0.21484-0.54688 0.26172-0.47266 0.27734-0.53125 0.26172-0.035157-0.011719-0.074219-0.046875-0.10156-0.097656-0.84766-1.6523-1.5859-3.1641-2.0742-4.8242 0.53906-0.046875 1.0742-0.070312 1.6016-0.074219 0.003906 0.003907 0.003906 0.007813 0.007812 0.011719 0.22266 0.26172 0.42969 0.75781 0.35938 1.0039-0.039063 0.13281 0.042968 0.27344 0.17578 0.30469 0.16016 0.042968 0.30078 0.17188 0.35547 0.33203zm-2.2578-5.8359c2.4023-1.082 4.4531-2.5273 6.7344-4.0195 0.89844 3.375 1.3711 6.3398 1.4023 8.8164-2.625-0.85156-5.0234-1.1914-7.5039-1.0898-0.57422-1.0977-0.80469-2.4453-0.63281-3.707zm-1.8242 0.71875c0.44922-0.15234 0.88672-0.32031 1.3086-0.49609-0.10938 1.2031 0.10938 2.4531 0.61719 3.5156-0.47266 0.03125-0.95313 0.078125-1.4375 0.14062-0.125 0.015625-0.25-0.039063-0.33984-0.15234-0.61328-0.77344-0.73047-1.9219-0.41016-2.7344 0.050781-0.13672 0.14844-0.23438 0.26172-0.27344z"/>
 <path d="m29.062 27.578c0 0.13672 0.10938 0.24609 0.24219 0.24609 0.13281 0 0.24219-0.10938 0.24609-0.24219 0.007813-1.043-0.20703-2.0859-0.62891-3.0117-0.054687-0.125-0.19922-0.17969-0.32422-0.12109-0.125 0.054687-0.17969 0.19922-0.12109 0.32422 0.39063 0.85937 0.59375 1.8281 0.58594 2.8047z"/>
 <path d="m33.398 23.449-1.207 1.4141c-0.085937 0.10156-0.074218 0.25781 0.027344 0.34375 0.10156 0.085938 0.25781 0.074219 0.34375-0.027343l1.207-1.4141c0.085938-0.10156 0.074219-0.25781-0.027343-0.34375-0.10547-0.085937-0.25781-0.074219-0.34375 0.027344z"/>
 <path d="m35.215 26.18c-0.011719-0.13672-0.13281-0.23438-0.26172-0.22656l-2 0.15625c-0.13281 0.011719-0.23438 0.12891-0.22656 0.26172 0.011719 0.13281 0.125 0.23438 0.26172 0.22656l2-0.15625c0.13672-0.011718 0.23828-0.12891 0.22656-0.26172z"/>
 <path d="m32.824 27.918c-0.085938 0.10156-0.074219 0.25781 0.027343 0.34375l1.2539 1.0742c0.10156 0.089843 0.25781 0.074218 0.34375-0.027344 0.085937-0.10156 0.074219-0.25781-0.027344-0.34375l-1.2539-1.0742c-0.10156-0.089844-0.25781-0.074219-0.34375 0.027344z"/>
 <path d="m33.469 41.195c0 0.13672 0.10938 0.24609 0.24609 0.24609 0.13672 0 0.24609-0.10938 0.24609-0.24609v-2.3086-0.007813l6.4102-6.4102 1.4688 1.4688c-0.007813 0.023438-0.011719 0.046875-0.011719 0.074219v5.4648c0 0.13672 0.10938 0.24609 0.24609 0.24609s0.24609-0.10938 0.24609-0.24609v-5.3633c0.007813-0.007812 0.019532-0.011719 0.027344-0.019531l3.0781-3.0781 0.72656 0.94141c0.125 0.16406 0.38672 0.10547 0.43359-0.097656 0.19922-0.89062 0.54297-1.8555 0.88672-2.7617 0.0625-0.16797-0.074218-0.35156-0.25781-0.32812-0.92969 0.10547-1.8516 0.32031-2.7656 0.34766-0.19922 0.007812-0.30859 0.23828-0.1875 0.39453l0.86328 1.1172-2.9492 2.9492-1.6289-1.6289c-0.089844-0.089844-0.25391-0.089844-0.34766 0l-6.4297 6.4297-3.8047-3.8047c-0.09375-0.09375-0.25-0.09375-0.34766 0l-6.3906 6.3867c-0.09375 0.09375-0.09375 0.25 0 0.34766 0.09375 0.09375 0.25 0.09375 0.34766 0l2.3945-2.3945v2.6211c0 0.13672 0.10938 0.24609 0.24609 0.24609 0.13672 0 0.24609-0.10938 0.24609-0.24609v-2.7539c0-0.097656-0.054688-0.17969-0.13672-0.21875l3.4688-3.4688 3.6992 3.6992c-0.011719 0.03125-0.019532 0.0625-0.019532 0.09375z"/>
 <path d="m47.762 24.121 0.066406-1.0469c0.007813-0.125-0.085937-0.23047-0.21094-0.23828l-10.887-0.57813c-0.125-0.007812-0.23047 0.085938-0.23828 0.21094l-0.066407 1.0469c-0.007812 0.125 0.085938 0.23047 0.21094 0.23828l10.887 0.57812c0.12109 0.007813 0.23047-0.085937 0.23828-0.21094z"/>
 <path d="m47 26.113c0.13281 0 0.24219-0.10547 0.24609-0.23828 0.003906-0.13672-0.10547-0.24609-0.23828-0.25-2.4961-0.046875-5.0742-0.125-8.6211-0.26172-0.13281 0-0.25 0.10156-0.25391 0.23438-0.003906 0.13672 0.10156 0.25 0.23438 0.25391 6.3633 0.24219 8.8086 0.26172 8.6328 0.26172z"/>
 <path d="m39.445 27.508c-0.13281 0-0.24219 0.10547-0.24609 0.24219-0.003907 0.13672 0.10547 0.24609 0.24219 0.25 0.019532 0 4.1992 0.074219 4.1836 0.074219 0.13281 0 0.24219-0.10547 0.24609-0.24219s-0.10547-0.24609-0.24219-0.25c-0.26562-0.003906-4.4492-0.078125-4.1836-0.074219z"/>
 <path d="m61.328 25.918 7.5938 0.36719c0.20703 0.011719 0.44141-0.10547 0.44141-0.29688v-4.582c0-0.19531-0.23047-0.30859-0.44141-0.29688l-7.5938 0.36719c-0.16406 0.007813-0.29297 0.13281-0.29297 0.27734v3.8945c0 0.14062 0.12891 0.26172 0.29297 0.26953zm2.6523-3.5859c0-0.13281 0.14844-0.20703 0.25781-0.13281l2.3906 1.6562c0.097656 0.070312 0.09375 0.21875-0.015625 0.27734-0.66406 0.36328-1.4648 0.83594-2.3945 1.3008-0.10938 0.054687-0.23438-0.023438-0.23438-0.14453z"/>
 <path d="m60.684 28.172 0.33203 0.019531 0.007813 1.8438c0 0.21875 0.26562 0.32422 0.41797 0.17188l1.8945-1.8867 5.6133 0.31641c0.074219 0.058593 0.14844 0.054687 0.25391 0.054687 1.0195 0 1.8906-0.76172 1.9219-1.7891 0.0625-1.9258 0.074219-4.0508 0.13281-6 0.03125-1.1133-0.91797-1.9375-2.0117-1.8711l-8.5547 0.54297c-0.90234 0.050781-1.6289 0.85547-1.625 1.793l0.019532 5.0586c0 0.92969 0.70312 1.6992 1.5977 1.7461zm0.023437-6.4219c0-0.31641 0.27344-0.58594 0.60547-0.60156l7.5938-0.36719c0.41016-0.019531 0.78125 0.24219 0.78125 0.625v4.582c0 0.37891-0.37109 0.64453-0.78125 0.625l-7.5938-0.36719c-0.33203-0.015625-0.60547-0.28516-0.60547-0.60156z"/>
 <path d="m21.547 16.508c4.9688 0.23047 9.9844 0.69531 14.91 1.3828 0.12891 0.019531 0.25781-0.070313 0.27734-0.20703 0.019531-0.13281-0.074219-0.25781-0.20703-0.27734-4.9414-0.69141-9.9727-1.1602-14.957-1.3867-0.13281-0.007812-0.25 0.097657-0.25391 0.23438-0.007812 0.13281 0.09375 0.24609 0.23047 0.25391z"/>
 <path d="m11.59 13.43c0.12891 0.035156 0.26562-0.042969 0.29688-0.17578 0.39453-1.5195 1.4766-2.8359 2.8906-3.5156 0.12109-0.058593 0.17188-0.20312 0.11328-0.32812-0.058594-0.12109-0.20312-0.17188-0.32812-0.11328-1.5391 0.74219-2.7188 2.1758-3.1484 3.8359-0.035156 0.12891 0.046876 0.26172 0.17578 0.29688z"/>
 <path d="m11.867 61.293c0.12109 0.0625 0.26953 0.015625 0.32812-0.10547 0.0625-0.12109 0.015626-0.26953-0.10547-0.32812-1.7969-0.93359-3.043-2.918-3.1094-4.9414-0.003907-0.13672-0.11719-0.24219-0.25391-0.23828-0.13672 0.003906-0.24219 0.11719-0.23828 0.25391 0.078125 2.2305 1.4023 4.332 3.3789 5.3594z"/>
 <path d="m8.6797 60.781c0.11719 0.070312 0.26562 0.035156 0.33594-0.082031 0.070313-0.11719 0.035156-0.26562-0.082031-0.33594-0.52344-0.31641-0.93359-0.83203-1.125-1.4141-0.042969-0.12891-0.17969-0.19922-0.30859-0.15625s-0.19922 0.17969-0.15625 0.30859c0.23047 0.69141 0.71875 1.3047 1.3359 1.6797z"/>
 <path d="m36.211 90.832h-6.4453c-0.13672 0-0.24609 0.10938-0.24609 0.24609s0.10938 0.24609 0.24609 0.24609h6.4453c0.13672 0 0.24609-0.10938 0.24609-0.24609-0.003906-0.13672-0.11328-0.24609-0.24609-0.24609z"/>
 <path d="m55.617 91.32c0.13672 0 0.24609-0.10937 0.24609-0.24609s-0.10938-0.24609-0.24609-0.24609h-9.7852c-0.13672 0-0.24609 0.10938-0.24609 0.24609s0.10937 0.24609 0.24609 0.24609z"/>
<text x="0.0" y="117.5" font-size="5.0" font-weight="bold" font-family="Arbeit Regular, Helvetica, Arial-Unicode, Arial, Sans-serif" fill="#000000">Created by Brickclay</text><text x="0.0" y="122.5" font-size="5.0" font-weight="bold" font-family="Arbeit Regular, Helvetica, Arial-Unicode, Arial, Sans-serif" fill="#000000">from Noun Project</text></svg>