<svg xmlns="http://www.w3.org/2000/svg" version="1.1" viewBox="-5.0 -10.0 110.0 135.0">
 <path d="m52.949 52.082c-3.3711 0-6.4102 2.0312-7.6992 5.1445-1.2891 3.1133-0.57812 6.6992 1.8047 9.082 2.3828 2.3828 5.9688 3.0977 9.082 1.8086 3.1133-1.293 5.1445-4.3281 5.1445-7.6992 0-2.2109-0.87891-4.332-2.4414-5.8945s-3.6836-2.4414-5.8906-2.4414zm0 15.125c-2.7422 0-5.2148-1.6484-6.2656-4.1836-1.0508-2.5312-0.47266-5.4492 1.4648-7.3867 1.9375-1.9414 4.8516-2.5234 7.3867-1.4766s4.1914 3.5156 4.1953 6.2578c-0.007813 3.7422-3.0391 6.7734-6.7812 6.7812zm12.676 17.512v5.7305c0 0.42969-0.35156 0.78125-0.78125 0.78125s-0.78125-0.35156-0.78125-0.78125v-5.7305c0-6.2344-5.0547-11.293-11.293-11.293-6.2344 0-11.289 5.0586-11.289 11.293v5.7305c0 0.42969-0.35156 0.78125-0.78125 0.78125-0.43359 0-0.78125-0.35156-0.78125-0.78125v-5.7305c0-7.0977 5.7539-12.855 12.852-12.855 7.1016 0 12.855 5.7578 12.855 12.855zm18.043-18.48c0-3.3711-2.0312-6.4062-5.1445-7.6992-3.1133-1.2891-6.6992-0.57422-9.082 1.8086-2.3828 2.3828-3.0977 5.9688-1.8086 9.082 1.293 3.1133 4.3281 5.1445 7.6992 5.1445 2.2109 0 4.332-0.87891 5.8945-2.4414s2.4414-3.6836 2.4414-5.8945zm-15.125 0c0-2.7422 1.6523-5.2148 4.1836-6.2656 2.5352-1.0469 5.4531-0.46875 7.3906 1.4727 1.9414 1.9375 2.5195 4.8555 1.4727 7.3906-1.0508 2.5312-3.5234 4.1836-6.2656 4.1836-3.7422-0.003906-6.7773-3.0391-6.7812-6.7812zm19.406 24.305c0 0.42969-0.35156 0.78125-0.78125 0.78125-0.43359 0-0.78125-0.35156-0.78125-0.78125-0.007813-3.7031-1.8281-7.1719-4.875-9.2773-3.043-2.1055-6.9297-2.5859-10.398-1.2852-0.19531 0.082031-0.42188 0.082031-0.61719-0.003907-0.19922-0.089843-0.35156-0.25391-0.42188-0.45703-0.089844-0.19531-0.089844-0.42188 0-0.62109 0.085937-0.19922 0.25-0.35156 0.45703-0.41797 1.4492-0.55078 2.9922-0.82812 4.543-0.82422 3.418-0.003906 6.6953 1.3516 9.1133 3.7695 2.4141 2.418 3.7695 5.6992 3.7617 9.1172zm-57.836-32.648c-3.3711 0-6.4062 2.0312-7.6992 5.1445-1.2891 3.1133-0.57422 6.6992 1.8086 9.082 2.3828 2.3828 5.9688 3.0977 9.082 1.8086 3.1133-1.293 5.1445-4.3281 5.1445-7.6992 0-4.6055-3.7305-8.3359-8.3359-8.3359zm0 15.125c-2.7422-0.003906-5.2109-1.6562-6.2578-4.1914-1.043-2.5352-0.46094-5.4492 1.4766-7.3867 1.9414-1.9375 4.8594-2.5156 7.3906-1.4648 2.5312 1.0508 4.1836 3.5195 4.1836 6.2617-0.003906 3.75-3.043 6.7812-6.793 6.7812zm5.207 6.5h0.003907c-0.070313 0.20703-0.22266 0.37109-0.42188 0.46094-0.19922 0.085937-0.42188 0.085937-0.62109 0-3.4609-1.2773-7.332-0.78906-10.363 1.3164-3.0352 2.1016-4.8477 5.5547-4.8672 9.2461 0 0.42969-0.34766 0.78125-0.78125 0.78125-0.42969 0-0.78125-0.35156-0.78125-0.78125 0.007813-4.2188 2.082-8.168 5.5508-10.566 3.4727-2.3984 7.8984-2.9414 11.848-1.457 0.19141 0.074219 0.34766 0.21875 0.42969 0.40625 0.085938 0.1875 0.089844 0.40234 0.015625 0.59375zm29.691-39.938 6.3438-15.25c0.53906-1.3008 0.53906-2.7617 0-4.0625-0.53906-1.3047-1.5742-2.3359-2.875-2.875l-20.051-8.332h-0.003907c-2.707-1.1211-5.8086 0.16016-6.9375 2.8633l-6.3438 15.324c-1.1172 2.7109 0.16797 5.8164 2.875 6.9375l3.8945 1.6133 1.9922 5.8672c0.30469 0.94141 1.0117 1.7031 1.9258 2.082 0.40625 0.17578 0.84375 0.26172 1.2812 0.26172 0.51953 0 1.0312-0.12109 1.4922-0.35547l5.5625-2.7695 3.8945 1.6133c1.3086 0.53906 2.7773 0.53516 4.082-0.011719 1.3008-0.55078 2.3359-1.5938 2.8672-2.9062zm-6.3438 1.4258-4.168-1.75v0.003907c-0.20703-0.089844-0.44141-0.089844-0.64453 0l-5.9375 2.9883c-0.47656 0.21484-1.0156 0.21484-1.4922 0-0.48047-0.17969-0.85938-0.55859-1.0391-1.043l-2.082-6.25h-0.003907c-0.066406-0.21484-0.22656-0.39062-0.4375-0.47656l-4.2305-1.75h0.003907c-0.91797-0.38281-1.6445-1.1133-2.0234-2.0312-0.38281-0.91797-0.38281-1.9492 0-2.8672l6.3438-15.293v0.003907c0.57812-1.4062 1.9492-2.3203 3.4688-2.3125 0.49219 0 0.97656 0.097656 1.4297 0.28125l20.051 8.332c1.9062 0.79688 2.8125 2.9844 2.0195 4.8945l-6.3828 15.293c-0.80078 1.8906-2.9727 2.793-4.875 2.0195zm-12.137-25.383c0.082031-0.19531 0.23828-0.35156 0.43359-0.42969 0.19531-0.078124 0.41406-0.074218 0.60938 0.011719l9.918 4.168h-0.003907c0.19922 0.074219 0.35938 0.23047 0.44141 0.42969 0.082031 0.19531 0.074218 0.41797-0.011719 0.61328-0.125 0.28516-0.40625 0.47266-0.71875 0.47656-0.11328 0.003907-0.22266-0.015625-0.32422-0.0625l-9.9258-4.1641c-0.19531-0.082031-0.35156-0.23828-0.42969-0.43359s-0.074219-0.41797 0.011719-0.60938zm16.918 11.938c-0.125 0.29297-0.41406 0.48438-0.73047 0.48047-0.10156 0-0.19922-0.015625-0.29297-0.054688l-17.207-7.1562c-0.34766-0.19531-0.49219-0.62109-0.33594-0.98828 0.16016-0.36719 0.57031-0.55469 0.94922-0.4375l17.188 7.1367c0.19531 0.078125 0.34766 0.23047 0.42578 0.42188 0.082032 0.19141 0.082032 0.40625 0.003907 0.59766zm-20.387-3.5508c0.082031-0.19531 0.23828-0.35156 0.43359-0.42969 0.19531-0.078125 0.41406-0.074219 0.60938 0.011719l9.918 4.168h-0.003907c0.25781 0.18359 0.37891 0.5 0.30859 0.80859-0.070313 0.30859-0.32031 0.54297-0.62891 0.59766-0.10156-0.003907-0.19922-0.023438-0.29297-0.0625l-9.9258-4.1055c-0.38672-0.16406-0.57031-0.60156-0.41797-0.98828zm16.918 11.914c-0.125 0.29688-0.41016 0.48828-0.73047 0.49219-0.10156-0.003907-0.19922-0.023438-0.29297-0.0625l-17.207-7.1367c-0.19922-0.078125-0.35547-0.23438-0.43359-0.42969-0.082031-0.19531-0.078125-0.41797 0.007813-0.61328 0.078125-0.19531 0.23438-0.34766 0.42969-0.42969 0.19531-0.082032 0.41797-0.078125 0.60938 0.003906l17.207 7.1367h0.003907c0.39844 0.17578 0.57812 0.64062 0.40625 1.0391zm-34.242 20.23c6.2109-1.6875 10.051-7.9023 8.7773-14.211-1.2773-6.3086-7.2266-10.547-13.605-9.6914-6.3789 0.85938-11 6.5156-10.562 12.938 0.43359 6.4219 5.7773 11.406 12.215 11.391 1.0742 0.003907 2.1406-0.14062 3.1758-0.42578zm-13.488-9.0312c-1.1211-4.1641 0.375-8.5977 3.793-11.227 3.418-2.6328 8.082-2.9453 11.82-0.79688 3.7422 2.1484 5.8164 6.3398 5.2656 10.617-0.55469 4.2773-3.6328 7.8008-7.7969 8.9258-5.6875 1.5273-11.539-1.8359-13.082-7.5195zm16.668-4.5c-0.29297-1.0703-1.1289-1.9062-2.1992-2.1992l-6.6758-1.7812c-1.0781-0.28125-2.2188 0.03125-3.0039 0.81641-0.78516 0.78906-1.0938 1.9336-0.80859 3.0078l1.8125 6.6875c0.28906 1.0703 1.125 1.9062 2.1953 2.1992 0.26953 0.070312 0.54688 0.10547 0.82422 0.10156 0.82031-0.003906 1.6055-0.33594 2.1875-0.91406l4.875-4.9062c0.78906-0.78906 1.0977-1.9336 0.8125-3.0117zm-1.8359 1.9062-4.8867 4.9062h0.003907c-0.39062 0.39453-0.96484 0.55469-1.5039 0.41016-0.53516-0.14062-0.95703-0.55859-1.1016-1.0977l-1.8867-6.6875c-0.125-0.46484-0.027343-0.96094 0.26562-1.3477 0.28906-0.38281 0.74219-0.60938 1.2266-0.60938 0.13281-0.023438 0.26953-0.023438 0.40625 0l6.6992 1.7812h-0.003907c0.57031 0.10938 1.0352 0.52734 1.1992 1.082 0.16406 0.55859 0.003906 1.1602-0.41797 1.5625zm58.988-8.5h0.003907c-1.5898-1.4414-3.7578-2.0547-5.8672-1.6562-2.25 0.59375-3.9844 2.3945-4.5 4.668-2.1406-0.91406-4.6133-0.5625-6.4141 0.91406-1.543 1.4688-2.3125 3.5703-2.0859 5.6875 0.085938 2.8516 1.4688 5.5078 3.75 7.2188 3.875 2.6445 13.543 5.3438 13.98 5.4492h0.20703c0.32812-0.003906 0.62109-0.20703 0.74219-0.51172 0.14453-0.39453 3.6445-9.832 3.7617-14.531h-0.003907c-0.050781-2.8359-1.3828-5.5-3.625-7.2383zm-1.3711 20.574c-2.3125-0.67969-9.6992-2.9297-12.824-5.043-1.8789-1.4336-3.0078-3.6445-3.0625-6.0117-0.19141-1.6211 0.35938-3.2461 1.5-4.4141 0.78906-0.67969 1.793-1.0508 2.832-1.043 0.96094 0.019531 1.9023 0.26172 2.75 0.70703 0.23438 0.125 0.51562 0.125 0.75 0 0.23438-0.11719 0.39453-0.35156 0.41797-0.61328 0-0.14453 0.41797-3.5625 3.5312-4.332 1.6172-0.25 3.2578 0.25 4.457 1.3633 1.9023 1.418 3.0508 3.6289 3.125 6-0.15625 3.7812-2.6758 11.125-3.4766 13.387z"/>
<text x="0.0" y="117.5" font-size="5.0" font-weight="bold" font-family="Arbeit Regular, Helvetica, Arial-Unicode, Arial, Sans-serif" fill="#000000">Created by Nina Karlos</text><text x="0.0" y="122.5" font-size="5.0" font-weight="bold" font-family="Arbeit Regular, Helvetica, Arial-Unicode, Arial, Sans-serif" fill="#000000">from Noun Project</text></svg>